<?xml version="1.0" encoding="UTF-8"?>
<svg id="Layer_2" data-name="Layer 2" xmlns="http://www.w3.org/2000/svg" xmlns:xlink="http://www.w3.org/1999/xlink" viewBox="0 0 605.3 691.01">
  <defs>
    <style>
      .cls-1 {
        fill: #fff;
      }

      .cls-2 {
        fill: #008f11;
      }

      .cls-3 {
        fill: url(#linear-gradient);
      }
    </style>
    <linearGradient id="linear-gradient" x1="0" y1="345.51" x2="605.3" y2="345.51" gradientUnits="userSpaceOnUse">
      <stop offset="0" stop-color="#003b00"/>
      <stop offset="1" stop-color="#0d0208"/>
    </linearGradient>
  </defs>
  <g id="Layer_1-2" data-name="Layer 1">
    <g>
      <path class="cls-3" d="M551.48,620.77l-248.29,70.24-246.83-69.85L0,0l605.08.17.22,25.09-53.82,595.51ZM490.66,592.75c.11-.03,14.89-5.26,14.59-4.74.34-.59.41-1.13.85-2.51l46.87-529.5-248.88.06-.02,584.48c.41,2.87,2.7,2.97,4.73,2.22,7.31-2.52,14.87-3.57,22-6.46,1.6-.65,2.47-.4,4.18-.86l155.68-42.68Z"/>
      <path class="cls-2" d="M490.67,592.69l-155.68,42.68c-1.71.47-2.57.21-4.18.86-7.13,2.89-14.69,3.94-22,6.46-2.03.75-4.32.65-4.73-2.22l.02-584.48,248.88-.06-46.87,529.5c-.44,1.39-.51,1.92-.85,2.51.3-.52-14.48,4.71-14.59,4.74Z"/>
    </g>
    <g>
      <path class="cls-1" d="M198.75,223.35l-133.42-54.87v-28.13l133.42-54.87v30.64l-103.06,37.05v2.51l103.06,37.05v30.64Z"/>
      <path class="cls-1" d="M234.96,279.61L346.94,28.92h29.53l-111.98,250.69h-29.53Z"/>
      <path class="cls-1" d="M406.55,223.35v-30.64l97.49-37.05v-2.51l-97.49-37.05v-30.64l133.42,54.87v28.13l-133.42,54.87Z"/>
    </g>
    <g>
      <path class="cls-1" d="M321.32,637.49l-12.4-45.49,6.66-1.82,12.4,45.49-6.66,1.82ZM327.53,635.8l-1.66-6.09,4.81-1.31c4.68-1.28,7.83-3.57,9.46-6.88,1.63-3.31,1.72-7.64.26-12.98-1.58-5.79-3.94-9.79-7.08-12.02-3.14-2.23-7.05-2.71-11.73-1.43l-4.68,1.27-2.43-5.88,5.45-1.49c13.88-3.79,22.95,2.12,27.2,17.71,4.02,14.73-.91,24-14.79,27.78l-4.81,1.31Z"/>
      <path class="cls-1" d="M349.94,587.36l-1.66-6.09,27.68-7.55,1.66,6.09-27.68,7.55ZM371.15,623.9l-12.4-45.49,6.66-1.82,12.4,45.49-6.66,1.82ZM360.68,626.76l-1.66-6.09,27.68-7.55,1.66,6.09-27.68,7.55Z"/>
      <path class="cls-1" d="M395.16,617.36l.73-49.07,9.29-2.53,25.54,41.91-6.73,1.83-21.66-37.04-.58.16.14,42.91-6.73,1.83ZM398.22,604.61l-1.66-6.09,23.07-6.29,1.66,6.09-23.06,6.29Z"/>
      <path class="cls-1" d="M436.65,606.04l-12.4-45.49,6.66-1.82,12.4,45.49-6.66,1.82ZM438.15,587.05l-1.66-6.09,9.42-2.57c2.54-.69,4.34-1.91,5.39-3.64,1.05-1.73,1.25-3.82.58-6.25-.73-2.67-2-4.53-3.81-5.58-1.81-1.05-3.99-1.24-6.53-.54l-9.29,2.53-2.43-5.88,10.06-2.74c4.72-1.29,8.69-1.08,11.92.6,3.22,1.69,5.44,4.74,6.64,9.13,1.25,4.57.93,8.47-.96,11.69-1.89,3.22-5.19,5.48-9.91,6.76l-9.42,2.57ZM461.06,599.39l-16.02-18.62,7.05-1.92,16.66,18.45-7.69,2.1Z"/>
      <path class="cls-1" d="M482.97,577.1l-23.96-26.02,7.05-1.92,17.29,19.72.58-.16,4.88-25.77,7.05-1.92-7.43,34.58-5.45,1.49ZM486.5,592.45l-6.11-22.42,6.66-1.82,6.12,22.42-6.66,1.82Z"/>
    </g>
    <g>
      <path class="cls-1" d="M170.88,417.34c-34.52,0-51.78-19.08-51.78-57.25,0-18.09,4.35-32.11,13.06-42.04,8.71-9.93,20.99-14.9,36.84-14.9,7.67,0,14.34,1.21,20.02,3.64,5.68,2.42,9.83,5.88,12.44,10.36l-11.58,11.5c-2.35-3.54-5.33-6.28-8.96-8.21-3.62-1.93-7.55-2.89-11.77-2.89-10.06,0-18.13,3.62-24.21,10.87-6.07,7.25-9.11,17.55-9.11,30.89,0,29.09,12.56,43.64,37.7,43.64,7.56,0,15.02-1.56,22.37-4.69l3.6,13.77c-9.07,3.55-18.61,5.32-28.62,5.32Z"/>
      <path class="cls-1" d="M253.16,417.34c-27.32,0-40.98-18.77-40.98-56.31s13.66-57.88,40.98-57.88,40.98,19.29,40.98,57.88-13.66,56.31-40.98,56.31ZM253.16,402.95c16.16,0,24.25-13.97,24.25-41.92s-8.08-43.48-24.25-43.48-24.25,14.5-24.25,43.48,8.08,41.92,24.25,41.92Z"/>
      <path class="cls-1" d="M311.03,415.77v-111.06h16.27v111.06h-16.27ZM326.21,415.77v-14.86h11.73c11.42,0,20.01-3.26,25.77-9.78,5.76-6.52,8.64-16.29,8.64-29.33,0-14.13-2.88-24.7-8.64-31.71-5.76-7.01-14.35-10.52-25.77-10.52h-11.42l-1.88-14.86h13.3c33.89,0,50.84,19.03,50.84,57.09,0,35.98-16.95,53.97-50.84,53.97h-11.73Z"/>
      <path class="cls-1" d="M406.45,415.77v-111.06h16.27v111.06h-16.27ZM406.45,319.57v-14.86h73.52v14.86h-73.52ZM406.45,367.59v-14.86h59.44v14.86h-59.44ZM406.45,415.77v-14.86h73.52v14.86h-73.52Z"/>
      <path class="cls-1" d="M170.25,540.03v-111.06h16.27v111.06h-16.27ZM185.43,540.03v-14.86h11.73c11.42,0,20.01-3.26,25.77-9.78,5.76-6.52,8.64-16.29,8.64-29.33,0-14.13-2.88-24.7-8.64-31.71-5.76-7.01-14.35-10.52-25.77-10.52h-11.42l-1.88-14.86h13.3c33.89,0,50.84,19.03,50.84,57.09,0,35.98-16.95,53.97-50.84,53.97h-11.73Z"/>
      <path class="cls-1" d="M265.67,540.03v-111.06h16.27v111.06h-16.27ZM265.67,443.83v-14.86h73.52v14.86h-73.52ZM265.67,491.86v-14.86h59.44v14.86h-59.44ZM265.67,540.03v-14.86h73.52v14.86h-73.52Z"/>
      <path class="cls-1" d="M381.81,540.03l-31.28-111.06h16.74l25.97,97.76h1.41l25.97-97.76h16.74l-31.29,111.06h-24.25Z"/>
    </g>
  </g>
</svg>